<svg width="1050" height="1050" viewBox="0 0 1050 1050" fill="none" xmlns="http://www.w3.org/2000/svg">
<circle cx="525" cy="525" r="495" stroke="#172830" stroke-width="60"/>
<path d="M522.174 87.5722C523.325 83.7925 528.676 83.7924 529.827 87.5722L630.385 417.954C630.773 419.229 631.771 420.228 633.046 420.616L963.428 521.174C967.208 522.325 967.208 527.676 963.428 528.827L633.046 629.385C631.771 629.773 630.773 630.771 630.385 632.046L529.827 962.428C528.676 966.208 523.325 966.208 522.174 962.428L421.616 632.046C421.228 630.771 420.229 629.773 418.954 629.385L88.5722 528.827C84.7923 527.676 84.7924 522.325 88.5722 521.174L418.954 420.616C420.229 420.228 421.228 419.229 421.616 417.954L522.174 87.5722ZM353.736 661.003C355.145 658.923 358.1 658.641 359.877 660.418L408.142 708.682C409.918 710.458 409.636 713.414 407.556 714.822L258.029 816.084C254.382 818.554 250.005 814.176 252.475 810.529L353.736 661.003ZM708.682 660.418C710.458 658.641 713.413 658.923 714.822 661.003L816.084 810.529C818.554 814.176 814.176 818.554 810.529 816.084L661.003 714.822C658.923 713.413 658.641 710.458 660.418 708.682L708.682 660.418ZM523.951 313.666C523.483 311.585 520.517 311.585 520.049 313.666L488.863 452.165C471.314 460.162 457.162 474.314 449.165 491.863L310.666 523.049C308.585 523.517 308.585 526.483 310.666 526.951L449.165 558.136C457.2 575.769 471.449 589.974 489.114 597.95L520.049 735.335C520.517 737.416 523.482 737.416 523.951 735.335L554.885 597.95C572.509 589.993 586.732 575.837 594.777 558.262C594.992 558.286 595.214 558.276 595.439 558.226L734.335 526.951C736.415 526.482 736.415 523.517 734.335 523.049L595.439 491.774C595.214 491.724 594.992 491.714 594.777 491.738C586.77 474.247 572.643 460.143 555.136 452.165L523.951 313.666ZM252.475 239.029C250.005 235.382 254.382 231.005 258.029 233.475L407.556 334.736C409.636 336.145 409.918 339.1 408.142 340.877L359.877 389.141C358.1 390.917 355.145 390.636 353.736 388.556L252.475 239.029ZM810.529 233.475C814.176 231.005 818.554 235.382 816.084 239.029L714.822 388.556C713.413 390.636 710.458 390.917 708.682 389.141L660.418 340.877C658.641 339.1 658.923 336.145 661.003 334.736L810.529 233.475Z" fill="#172830"/>
<path d="M522.174 87.5722C523.325 83.7925 528.676 83.7924 529.827 87.5722L630.385 417.954C630.773 419.229 631.771 420.228 633.046 420.616L963.428 521.174C967.208 522.325 967.208 527.676 963.428 528.827L633.046 629.385C631.771 629.773 630.773 630.771 630.385 632.046L529.827 962.428C528.676 966.208 523.325 966.208 522.174 962.428L421.616 632.046C421.228 630.771 420.229 629.773 418.954 629.385L88.5722 528.827C84.7923 527.676 84.7924 522.325 88.5722 521.174L418.954 420.616C420.229 420.228 421.228 419.229 421.616 417.954L522.174 87.5722ZM353.736 661.003C355.145 658.923 358.1 658.641 359.877 660.418L408.142 708.682C409.918 710.458 409.636 713.414 407.556 714.822L258.029 816.084C254.382 818.554 250.005 814.176 252.475 810.529L353.736 661.003ZM708.682 660.418C710.458 658.641 713.413 658.923 714.822 661.003L816.084 810.529C818.554 814.176 814.176 818.554 810.529 816.084L661.003 714.822C658.923 713.413 658.641 710.458 660.418 708.682L708.682 660.418ZM523.951 313.666C523.483 311.585 520.517 311.585 520.049 313.666L488.863 452.165C471.314 460.162 457.162 474.314 449.165 491.863L310.666 523.049C308.585 523.517 308.585 526.483 310.666 526.951L449.165 558.136C457.2 575.769 471.449 589.974 489.114 597.95L520.049 735.335C520.517 737.416 523.482 737.416 523.951 735.335L554.885 597.95C572.509 589.993 586.732 575.837 594.777 558.262C594.992 558.286 595.214 558.276 595.439 558.226L734.335 526.951C736.415 526.482 736.415 523.517 734.335 523.049L595.439 491.774C595.214 491.724 594.992 491.714 594.777 491.738C586.77 474.247 572.643 460.143 555.136 452.165L523.951 313.666ZM252.475 239.029C250.005 235.382 254.382 231.005 258.029 233.475L407.556 334.736C409.636 336.145 409.918 339.1 408.142 340.877L359.877 389.141C358.1 390.917 355.145 390.636 353.736 388.556L252.475 239.029ZM810.529 233.475C814.176 231.005 818.554 235.382 816.084 239.029L714.822 388.556C713.413 390.636 710.458 390.917 708.682 389.141L660.418 340.877C658.641 339.1 658.923 336.145 661.003 334.736L810.529 233.475Z" stroke="#172830"/>
</svg>
