<svg width="451" height="450" viewBox="0 0 451 450" fill="none" xmlns="http://www.w3.org/2000/svg">
<path fill-rule="evenodd" clip-rule="evenodd" d="M205.251 166.001C204.972 168.248 207.197 170.001 209.374 169.379C214.385 167.949 219.676 167.183 225.146 167.183C230.616 167.183 235.907 167.949 240.918 169.379C243.095 170.001 245.32 168.248 245.041 166.001L228.123 29.6307C227.688 26.1231 222.604 26.1231 222.169 29.6307L205.251 166.001ZM276.522 190.898C275.239 192.544 272.704 192.412 271.473 190.727C268.424 186.554 264.825 182.809 260.782 179.598C259.192 178.335 259.115 175.885 260.718 174.637L314.149 132.999C316.937 130.827 320.532 134.422 318.36 137.21L276.522 190.898ZM283.459 245.144C281.194 245.425 279.437 243.164 280.09 240.978C281.649 235.766 282.486 230.242 282.486 224.523C282.486 219.246 281.774 214.135 280.439 209.282C279.842 207.113 281.591 204.916 283.824 205.193L420.662 222.169C424.169 222.604 424.169 227.688 420.662 228.123L283.459 245.144ZM259.633 275.254C258.006 273.986 258.114 271.489 259.757 270.243C263.948 267.066 267.689 263.325 270.866 259.134C272.112 257.491 274.609 257.383 275.877 259.01L318.36 313.526C320.532 316.314 316.937 319.909 314.149 317.737L259.633 275.254ZM205.091 282.999C204.812 280.748 207.044 278.995 209.223 279.624C214.279 281.082 219.621 281.863 225.146 281.863C230.671 281.863 236.013 281.082 241.069 279.623C243.248 278.995 245.481 280.748 245.202 282.999L228.123 420.662C227.688 424.169 222.604 424.169 222.169 420.662L205.091 282.999ZM175.26 260.094C176.509 258.492 178.958 258.569 180.222 260.159C183.432 264.202 187.178 267.801 191.35 270.85C193.035 272.081 193.168 274.616 191.522 275.899L137.833 317.737C135.045 319.909 131.45 316.314 133.622 313.526L175.26 260.094ZM166.468 205.193C168.701 204.916 170.45 207.113 169.853 209.282C168.519 214.135 167.806 219.246 167.806 224.523C167.806 230.242 168.643 235.766 170.202 240.978C170.856 243.164 169.099 245.426 166.834 245.145L29.6306 228.123C26.1231 227.688 26.1231 222.604 29.6307 222.169L166.468 205.193ZM190.418 173.977C192.039 175.24 191.938 177.727 190.307 178.977C186.284 182.058 182.682 185.661 179.6 189.683C178.35 191.315 175.864 191.416 174.6 189.794L133.622 137.21C131.45 134.422 135.045 130.827 137.833 132.999L190.418 173.977Z" fill="#172830"/>
<circle cx="225" cy="225" r="29" fill="#172830"/>
<path fill-rule="evenodd" clip-rule="evenodd" d="M206.359 37.6304C205.895 40.2599 203.748 42.2562 201.101 42.6079C196.507 43.2182 191.967 43.9986 187.487 44.9423C185.026 45.4605 182.482 44.4576 181.097 42.3593L169.567 24.8891C168.057 22.6009 165.187 21.6274 162.597 22.5243L141.599 29.7926C141.201 29.9305 140.818 30.11 140.457 30.3281L123.344 40.6759C121.065 42.0537 119.967 44.7683 120.647 47.3427L125.387 65.2878C126.051 67.7997 125.022 70.4534 122.839 71.8619L114.365 77.329C112.328 78.6434 109.7 78.6025 107.704 77.2254L79.6761 57.8821C77.2653 56.2183 74.0055 56.5385 71.9644 58.6396L62.0479 68.8477C60.0015 70.9544 59.7808 74.2329 61.5266 76.5948L81.4154 103.503C82.9573 105.589 82.9839 108.43 81.4814 110.545L79.5831 113.216C77.0134 116.581 74.5574 120.036 72.2208 123.578C71.1861 125.034 69.3555 125.695 67.6293 125.234L45.1929 119.251C42.4564 118.522 39.5823 119.805 38.2986 122.329L28.0354 142.514C26.6073 145.322 27.595 148.757 30.2968 150.378L33.9994 152.6C36.3526 154.012 37.448 156.84 36.6594 159.469L32.0487 174.838C31.1678 177.774 32.642 180.902 35.4673 182.092L41.3762 184.579C44.0255 185.695 45.5008 188.531 44.985 191.359C44.3673 194.745 43.8426 198.163 43.4136 201.612C43.0692 204.379 40.9305 206.603 38.1654 206.967L5.21559 211.312C2.23092 211.706 0 214.25 0 217.261V228.739C0 231.75 2.23092 234.294 5.21558 234.688L37.812 238.986C40.6138 239.356 42.7674 241.632 43.071 244.441C43.4649 248.086 43.9655 251.698 44.5696 255.276C45.0391 258.057 43.5922 260.827 41.0047 261.948L35.3939 264.379C32.603 265.589 31.1586 268.695 32.0326 271.609L36.7362 287.287C37.4885 289.795 36.528 292.501 34.3631 293.973L29.9317 296.986C27.4074 298.703 26.5743 302.041 27.996 304.742L38.3763 324.465C39.6314 326.85 42.3226 328.105 44.9563 327.534L65.9657 322.982C68.4326 322.448 70.9622 323.52 72.355 325.625C74.6361 329.073 77.0304 332.438 79.5327 335.718C81.1673 337.86 81.2551 340.821 79.6832 343.01L61.273 368.64C59.6483 370.901 59.7935 373.984 61.6235 376.083L71.8784 387.846C73.9264 390.195 77.4319 390.585 79.9463 388.744L106.025 369.644C108.227 368.031 111.234 368.116 113.394 369.785C116.398 372.106 119.475 374.336 122.623 376.471C124.883 378.004 125.901 380.836 125.053 383.432L120.139 398.482C119.202 401.351 120.542 404.47 123.269 405.764L163.068 424.659C165.864 425.986 169.211 424.969 170.795 422.311L180.103 406.698C181.449 404.44 184.105 403.331 186.674 403.885C191.451 404.914 196.297 405.757 201.205 406.406C203.807 406.75 205.932 408.685 206.441 411.26L213.044 444.664C213.6 447.474 216.065 449.5 218.93 449.5H230.399C233.34 449.5 235.848 447.368 236.321 444.466L241.643 411.82C242.084 409.12 244.297 407.07 247.014 406.752C252.6 406.1 258.11 405.197 263.532 404.054C266.073 403.518 268.695 404.606 270.045 406.825L278.204 420.228C279.57 422.471 282.236 423.566 284.784 422.929L305.723 417.694C306.239 417.565 306.735 417.368 307.199 417.109L327.035 406C329.607 404.56 330.752 401.464 329.735 398.696L324.564 384.62C323.587 381.958 324.612 378.984 326.973 377.414C330.376 375.151 333.699 372.778 336.937 370.3C339.084 368.656 342.058 368.569 344.249 370.152L370.126 388.841C372.613 390.637 376.055 390.268 378.104 387.984L388.902 375.952C390.727 373.919 390.948 370.91 389.44 368.633L371.808 341.996C370.375 339.832 370.504 336.998 372.067 334.927C375.197 330.779 378.155 326.495 380.93 322.084C380.973 322.033 381.041 322.01 381.107 322.025L404.973 327.565C407.398 328.128 409.918 327.135 411.308 325.07L417.794 315.427C418.097 314.978 418.337 314.49 418.508 313.976L422.066 303.301C422.915 300.756 421.971 297.957 419.754 296.446L416.059 293.927C413.932 292.476 412.967 289.831 413.662 287.352L418.238 271.006C418.98 268.357 417.826 265.543 415.437 264.179L409.532 260.804C407.312 259.535 406.149 256.999 406.564 254.475C407.106 251.174 407.561 247.843 407.924 244.485C408.228 241.682 410.372 239.411 413.165 239.034L445.302 234.701C448.279 234.299 450.5 231.759 450.5 228.755V217.245C450.5 214.241 448.279 211.7 445.302 211.299L412.811 206.918C410.054 206.547 407.925 204.327 407.581 201.567C407.119 197.866 406.548 194.199 405.869 190.57C405.39 188.007 406.549 185.4 408.814 184.106L415.343 180.376C417.774 178.986 418.921 176.099 418.106 173.419L413.873 159.513C413.067 156.864 414.178 154.009 416.561 152.6L418.838 151.255C421.486 149.69 422.522 146.375 421.236 143.581L411.132 121.631C409.902 118.96 406.92 117.574 404.086 118.356L384.268 123.823C381.731 124.523 379.033 123.487 377.616 121.269L370.631 110.336C369.339 108.312 369.377 105.713 370.729 103.728L389.281 76.492C390.868 74.1614 390.619 71.0397 388.681 68.991L378.078 57.7825C376.025 55.6124 372.689 55.2829 370.251 57.0096L341.284 77.5283C339.598 78.7225 337.359 78.7871 335.607 77.6921C332.602 75.4342 329.524 73.2665 326.38 71.1929C324.193 69.7513 323.125 67.091 323.782 64.5559L328.346 46.951C329.027 44.3249 327.861 41.5687 325.502 40.2285L307.93 30.2446C307.644 30.0818 307.345 29.9429 307.035 29.8293L287.46 22.6382C284.846 21.6783 281.916 22.6418 280.383 24.9652L269.024 42.1761C267.645 44.2655 265.115 45.2697 262.663 44.7653C257.616 43.7271 252.493 42.8962 247.304 42.2819C244.671 41.9702 242.506 40.0302 241.986 37.4309L235.465 4.8233C234.904 2.01876 232.441 0 229.581 0H218.034C215.122 0 212.631 2.09014 212.125 4.95729L206.359 37.6304ZM225 370C305.081 370 370 305.081 370 225C370 144.919 305.081 80 225 80C144.919 80 80 144.919 80 225C80 305.081 144.919 370 225 370Z" fill="#16272D"/>
<circle cx="225" cy="225" r="163" stroke="#FF8100" stroke-width="15"/>
</svg>
