<svg width="400" height="400" viewBox="0 0 400 400" fill="none" xmlns="http://www.w3.org/2000/svg">
<path d="M173.587 155.482L176.079 162.126L189.368 156.811L185.879 150.167L178.903 152.16L173.587 155.482Z" fill="#172830" stroke="black"/>
<path d="M225.579 155.315L223.087 161.96L209.799 156.644L213.287 150L220.263 151.993L225.579 155.315Z" fill="#172830" stroke="black"/>
<path d="M225.579 243.685L223.087 237.04L209.799 242.356L213.287 249L220.263 247.007L225.579 243.685Z" fill="#172830" stroke="black"/>
<path d="M173.919 243.685L176.411 237.04L189.7 242.356L186.211 249L179.235 247.007L173.919 243.685Z" fill="#172830" stroke="black"/>
<path d="M156.312 189.367L161.96 176.079L155.482 173.421L152.326 179.401L150 186.045L156.312 189.367Z" fill="#172830" stroke="black"/>
<path d="M242.688 189.201L237.04 175.913L243.518 173.255L246.674 179.235L249 185.879L242.688 189.201Z" fill="#172830" stroke="black"/>
<path d="M156.312 210.463L161.96 223.751L155.482 226.409L152.326 220.429L150 213.785L156.312 210.463Z" fill="#172830" stroke="black"/>
<path d="M242.688 210.463L237.04 223.751L243.518 226.409L246.674 220.429L249 213.785L242.688 210.463Z" fill="#172830" stroke="black"/>
<circle cx="199.5" cy="199.5" r="38.849" stroke="#172830" stroke-width="12"/>
<path d="M154.5 134.5L133.5 156L78 87L86.5 79L154.5 134.5Z" fill="#172830" stroke="#172830"/>
<path d="M1 210.5L121.5 228L121.5 176L1 199L1 210.5Z" fill="#172830" stroke="#172830"/>
<path d="M157.5 267.5L136.5 246L81 315L89.5 323L157.5 267.5Z" fill="#172830" stroke="#172830"/>
<path d="M194.5 397.5L177 277H229L206 397.5H194.5Z" fill="#172830" stroke="#172830"/>
<path d="M243 266.5L264 245L319.5 314L311 322L243 266.5Z" fill="#172830" stroke="#172830"/>
<path d="M397.5 195.5L277 178L277 230L397.5 207L397.5 195.5Z" fill="#172830" stroke="#172830"/>
<path d="M247 137.5L268 159L323.5 90L315 82L247 137.5Z" fill="#172830" stroke="#172830"/>
<path d="M194.5 1L177 121.5H229L206 1H194.5Z" fill="#172830" stroke="#172830"/>
<path d="M123 69.5L130.5 89.5L170.5 73.5L160 53.5L139 59.5L123 69.5Z" fill="#172830" stroke="black"/>
<path d="M279.5 69L272 89L232 73L242.5 53L263.5 59L279.5 69Z" fill="#172830" stroke="black"/>
<path d="M279.5 335L272 315L232 331L242.5 351L263.5 345L279.5 335Z" fill="#172830" stroke="black"/>
<path d="M124 335L131.5 315L171.5 331L161 351L140 345L124 335Z" fill="#172830" stroke="black"/>
<path d="M71 171.5L88 131.5L68.5 123.5L59 141.5L52 161.5L71 171.5Z" fill="#172830" stroke="black"/>
<path d="M331 171L314 131L333.5 123L343 141L350 161L331 171Z" fill="#172830" stroke="black"/>
<path d="M71 235L88 275L68.5 283L59 265L52 245L71 235Z" fill="#172830" stroke="black"/>
<path d="M331 235L314 275L333.5 283L343 265L350 245L331 235Z" fill="#172830" stroke="black"/>
<circle cx="201" cy="202" r="122" stroke="#172830" stroke-width="26"/>
<circle cx="199.5" cy="199.5" r="81" stroke="#FF8100" stroke-width="9"/>
</svg>
